M48
;DRILL file {Pcbnew (2013-07-07 BZR 4022)-stable} date 2015/03/10 23:05:44
;FORMAT={-:-/ absolute / metric / decimal}
FMAT,2
METRIC,TZ
T1C0.300
T2C0.800
T3C0.900
T4C1.000
T5C1.400
T6C3.300
%
G90
G05
M71
T1
X118.Y-69.
T2
X105.03Y-69.8
X107.57Y-69.8
X109.92Y-82.
X118.92Y-61.
X118.92Y-67.
X118.92Y-71.
X120.08Y-82.
X129.08Y-61.
X129.08Y-67.
X129.08Y-71.
X129.92Y-82.
X133.19Y-55.84
X133.19Y-58.38
X133.19Y-60.92
X133.19Y-63.46
X133.19Y-66.
X133.19Y-68.54
X133.19Y-71.08
X133.19Y-73.62
X133.19Y-76.16
X140.08Y-82.
X140.81Y-55.84
X140.81Y-58.38
X140.81Y-60.92
X140.81Y-63.46
X140.81Y-66.
X140.81Y-68.54
X140.81Y-71.08
X140.81Y-73.62
X140.81Y-76.16
X146.Y-63.48
X146.Y-66.02
T3
X113.73Y-57.
X113.73Y-67.
X113.73Y-77.
X116.27Y-57.
X116.27Y-67.
X116.27Y-77.
T4
X105.Y-61.73
X105.Y-64.27
X105.Y-75.73
X105.Y-78.27
X125.Y-57.
X125.Y-77.
X146.Y-72.65
X146.Y-75.19
X146.Y-77.73
X146.Y-80.27
X146.Y-82.81
X146.Y-85.35
T5
X108.65Y-87.46
X108.65Y-92.54
X121.35Y-87.46
X121.35Y-92.54
X128.65Y-87.46
X128.65Y-92.54
X141.35Y-87.46
X141.35Y-92.54
T6
X103.Y-53.
X103.Y-97.
X147.Y-53.
X147.Y-97.
T0
M30
