G04 (created by PCBNEW (2013-07-07 BZR 4022)-stable) date 2015/03/10 23:26:39*
%MOIN*%
G04 Gerber Fmt 3.4, Leading zero omitted, Abs format*
%FSLAX34Y34*%
G01*
G70*
G90*
G04 APERTURE LIST*
%ADD10C,0.00629921*%
%ADD11C,0.09*%
%ADD12C,0.066*%
%ADD13C,0.0944882*%
%ADD14R,0.11811X0.11811*%
%ADD15C,0.19685*%
%ADD16R,0.055X0.055*%
%ADD17C,0.055*%
%ADD18C,0.06*%
%ADD19R,0.0590551X0.0590551*%
%ADD20C,0.0590551*%
%ADD21C,0.023622*%
%ADD22C,0.0393701*%
%ADD23C,0.019685*%
G04 APERTURE END LIST*
G54D10*
G54D11*
X49212Y-22440D03*
X49212Y-30314D03*
G54D12*
X45775Y-30314D03*
X44775Y-30314D03*
X45775Y-26377D03*
X44775Y-26377D03*
X45775Y-22440D03*
X44775Y-22440D03*
G54D13*
X55649Y-34433D03*
X55649Y-36433D03*
G54D14*
X50649Y-34433D03*
X50649Y-36433D03*
G54D13*
X47775Y-34433D03*
X47775Y-36433D03*
G54D14*
X42775Y-34433D03*
X42775Y-36433D03*
G54D15*
X40551Y-38188D03*
X57874Y-38188D03*
X40551Y-20866D03*
X57874Y-20866D03*
G54D16*
X52437Y-21984D03*
G54D17*
X52437Y-22984D03*
X52437Y-23984D03*
X52437Y-24984D03*
X52437Y-25984D03*
X52437Y-26984D03*
X52437Y-27984D03*
X52437Y-28984D03*
X52437Y-29984D03*
X55437Y-29984D03*
X55437Y-28984D03*
X55437Y-27984D03*
X55437Y-26984D03*
X55437Y-25984D03*
X55437Y-24984D03*
X55437Y-23984D03*
X55437Y-22984D03*
X55437Y-21984D03*
G54D18*
X47275Y-32283D03*
X43275Y-32283D03*
X55149Y-32283D03*
X51149Y-32283D03*
X50818Y-27952D03*
X46818Y-27952D03*
X50818Y-26377D03*
X46818Y-26377D03*
X50818Y-24015D03*
X46818Y-24015D03*
G54D17*
X57480Y-24992D03*
X57480Y-25992D03*
X41350Y-27480D03*
X42350Y-27480D03*
G54D19*
X57480Y-28602D03*
G54D20*
X57480Y-29602D03*
X57480Y-30602D03*
X57480Y-31602D03*
X57480Y-32602D03*
X57480Y-33602D03*
G54D19*
X41338Y-24303D03*
G54D20*
X41338Y-25303D03*
G54D19*
X41338Y-30814D03*
G54D20*
X41338Y-29814D03*
G54D21*
X46456Y-27165D03*
G54D22*
X41338Y-30814D02*
X41807Y-30814D01*
X41807Y-30814D02*
X43275Y-32283D01*
X57480Y-25992D02*
X56299Y-25992D01*
X56299Y-25992D02*
X56299Y-25984D01*
X51181Y-31102D02*
X52755Y-31102D01*
X54330Y-26377D02*
X54724Y-25984D01*
X54724Y-25984D02*
X55437Y-25984D01*
X53937Y-26771D02*
X54330Y-26377D01*
X53937Y-29921D02*
X53937Y-26771D01*
X52755Y-31102D02*
X53937Y-29921D01*
X49212Y-30314D02*
X49212Y-31102D01*
X49212Y-31102D02*
X50000Y-31102D01*
X50000Y-31102D02*
X51181Y-31102D01*
X43275Y-32283D02*
X45669Y-32283D01*
X46850Y-31102D02*
X49212Y-31102D01*
X45669Y-32283D02*
X46850Y-31102D01*
X51149Y-32283D02*
X51149Y-31102D01*
X51149Y-31102D02*
X51181Y-31102D01*
X57480Y-29602D02*
X56767Y-29602D01*
X56299Y-29133D02*
X56299Y-25984D01*
X56767Y-29602D02*
X56299Y-29133D01*
X55437Y-25984D02*
X56299Y-25984D01*
X41338Y-29814D02*
X44775Y-29814D01*
X42775Y-34433D02*
X47775Y-34433D01*
X57480Y-24992D02*
X57480Y-22834D01*
X54724Y-21259D02*
X55905Y-21259D01*
X55905Y-21259D02*
X57480Y-22834D01*
X53937Y-22047D02*
X54724Y-21259D01*
X52437Y-25984D02*
X52755Y-25984D01*
X53937Y-24803D02*
X53937Y-22047D01*
X52755Y-25984D02*
X53937Y-24803D01*
X57480Y-30602D02*
X56799Y-30602D01*
X56299Y-33783D02*
X55649Y-34433D01*
X56299Y-31102D02*
X56299Y-33783D01*
X56799Y-30602D02*
X56299Y-31102D01*
X42775Y-34433D02*
X50649Y-34433D01*
X50649Y-34433D02*
X55649Y-34433D01*
X49212Y-25196D02*
X44775Y-25196D01*
X44775Y-22440D02*
X44775Y-25196D01*
X44775Y-25196D02*
X44775Y-26377D01*
X44775Y-26377D02*
X44775Y-29814D01*
X44775Y-29814D02*
X44775Y-30314D01*
X49212Y-22440D02*
X49212Y-25196D01*
X51968Y-25984D02*
X52437Y-25984D01*
X51181Y-25196D02*
X51968Y-25984D01*
X49212Y-25196D02*
X51181Y-25196D01*
G54D23*
X50393Y-27165D02*
X51181Y-27165D01*
X55437Y-24984D02*
X54740Y-24984D01*
X52952Y-27460D02*
X51481Y-27465D01*
X50393Y-27165D02*
X46456Y-27165D01*
X53346Y-27066D02*
X52952Y-27460D01*
X53346Y-26377D02*
X53346Y-27066D01*
X54740Y-24984D02*
X53346Y-26377D01*
X51181Y-27165D02*
X51481Y-27465D01*
M02*
