G04 (created by PCBNEW (2013-07-07 BZR 4022)-stable) date 2015/03/10 23:26:39*
%MOIN*%
G04 Gerber Fmt 3.4, Leading zero omitted, Abs format*
%FSLAX34Y34*%
G01*
G70*
G90*
G04 APERTURE LIST*
%ADD10C,0.00629921*%
%ADD11C,0.00590551*%
%ADD12C,0.011811*%
%ADD13C,0.00787402*%
%ADD14C,0.00984252*%
%ADD15C,0.00708661*%
%ADD16C,0.015*%
%ADD17C,0.01*%
G04 APERTURE END LIST*
G54D10*
G54D11*
X56566Y-38428D02*
X56566Y-37837D01*
X56313Y-38428D02*
X56313Y-38118D01*
X56341Y-38062D01*
X56397Y-38034D01*
X56482Y-38034D01*
X56538Y-38062D01*
X56566Y-38090D01*
X56116Y-38034D02*
X55891Y-38034D01*
X56032Y-37837D02*
X56032Y-38343D01*
X56003Y-38399D01*
X55947Y-38428D01*
X55891Y-38428D01*
X55778Y-38034D02*
X55553Y-38034D01*
X55694Y-37837D02*
X55694Y-38343D01*
X55666Y-38399D01*
X55610Y-38428D01*
X55553Y-38428D01*
X55357Y-38034D02*
X55357Y-38624D01*
X55357Y-38062D02*
X55300Y-38034D01*
X55188Y-38034D01*
X55132Y-38062D01*
X55104Y-38090D01*
X55075Y-38146D01*
X55075Y-38315D01*
X55104Y-38371D01*
X55132Y-38399D01*
X55188Y-38428D01*
X55300Y-38428D01*
X55357Y-38399D01*
X54822Y-38371D02*
X54794Y-38399D01*
X54822Y-38428D01*
X54850Y-38399D01*
X54822Y-38371D01*
X54822Y-38428D01*
X54822Y-38062D02*
X54794Y-38090D01*
X54822Y-38118D01*
X54850Y-38090D01*
X54822Y-38062D01*
X54822Y-38118D01*
X54119Y-37809D02*
X54625Y-38568D01*
X53501Y-37809D02*
X54007Y-38568D01*
X53051Y-38399D02*
X53107Y-38428D01*
X53219Y-38428D01*
X53276Y-38399D01*
X53304Y-38371D01*
X53332Y-38315D01*
X53332Y-38146D01*
X53304Y-38090D01*
X53276Y-38062D01*
X53219Y-38034D01*
X53107Y-38034D01*
X53051Y-38062D01*
X52713Y-38428D02*
X52769Y-38399D01*
X52798Y-38343D01*
X52798Y-37837D01*
X52404Y-38428D02*
X52460Y-38399D01*
X52488Y-38371D01*
X52516Y-38315D01*
X52516Y-38146D01*
X52488Y-38090D01*
X52460Y-38062D01*
X52404Y-38034D01*
X52320Y-38034D01*
X52263Y-38062D01*
X52235Y-38090D01*
X52207Y-38146D01*
X52207Y-38315D01*
X52235Y-38371D01*
X52263Y-38399D01*
X52320Y-38428D01*
X52404Y-38428D01*
X51701Y-38399D02*
X51757Y-38428D01*
X51870Y-38428D01*
X51926Y-38399D01*
X51954Y-38371D01*
X51982Y-38315D01*
X51982Y-38146D01*
X51954Y-38090D01*
X51926Y-38062D01*
X51870Y-38034D01*
X51757Y-38034D01*
X51701Y-38062D01*
X51448Y-38428D02*
X51448Y-37837D01*
X51392Y-38203D02*
X51223Y-38428D01*
X51223Y-38034D02*
X51448Y-38259D01*
X51026Y-38034D02*
X50913Y-38428D01*
X50801Y-38146D01*
X50688Y-38428D01*
X50576Y-38034D01*
X50267Y-38428D02*
X50323Y-38399D01*
X50351Y-38371D01*
X50379Y-38315D01*
X50379Y-38146D01*
X50351Y-38090D01*
X50323Y-38062D01*
X50267Y-38034D01*
X50182Y-38034D01*
X50126Y-38062D01*
X50098Y-38090D01*
X50070Y-38146D01*
X50070Y-38315D01*
X50098Y-38371D01*
X50126Y-38399D01*
X50182Y-38428D01*
X50267Y-38428D01*
X49817Y-38428D02*
X49817Y-38034D01*
X49817Y-38146D02*
X49789Y-38090D01*
X49760Y-38062D01*
X49704Y-38034D01*
X49648Y-38034D01*
X49451Y-38428D02*
X49451Y-37837D01*
X49395Y-38203D02*
X49226Y-38428D01*
X49226Y-38034D02*
X49451Y-38259D01*
X49001Y-38399D02*
X48945Y-38428D01*
X48832Y-38428D01*
X48776Y-38399D01*
X48748Y-38343D01*
X48748Y-38315D01*
X48776Y-38259D01*
X48832Y-38231D01*
X48917Y-38231D01*
X48973Y-38203D01*
X49001Y-38146D01*
X49001Y-38118D01*
X48973Y-38062D01*
X48917Y-38034D01*
X48832Y-38034D01*
X48776Y-38062D01*
X48383Y-37837D02*
X48326Y-37837D01*
X48270Y-37865D01*
X48242Y-37893D01*
X48214Y-37949D01*
X48186Y-38062D01*
X48186Y-38203D01*
X48214Y-38315D01*
X48242Y-38371D01*
X48270Y-38399D01*
X48326Y-38428D01*
X48383Y-38428D01*
X48439Y-38399D01*
X48467Y-38371D01*
X48495Y-38315D01*
X48523Y-38203D01*
X48523Y-38062D01*
X48495Y-37949D01*
X48467Y-37893D01*
X48439Y-37865D01*
X48383Y-37837D01*
X47623Y-38428D02*
X47961Y-38428D01*
X47792Y-38428D02*
X47792Y-37837D01*
X47848Y-37921D01*
X47904Y-37978D01*
X47961Y-38006D01*
X47370Y-38371D02*
X47342Y-38399D01*
X47370Y-38428D01*
X47398Y-38399D01*
X47370Y-38371D01*
X47370Y-38428D01*
X47089Y-38428D02*
X47089Y-37837D01*
X47089Y-38062D02*
X47033Y-38034D01*
X46920Y-38034D01*
X46864Y-38062D01*
X46836Y-38090D01*
X46808Y-38146D01*
X46808Y-38315D01*
X46836Y-38371D01*
X46864Y-38399D01*
X46920Y-38428D01*
X47033Y-38428D01*
X47089Y-38399D01*
X46470Y-38428D02*
X46526Y-38399D01*
X46555Y-38343D01*
X46555Y-37837D01*
X46161Y-38428D02*
X46217Y-38399D01*
X46245Y-38371D01*
X46273Y-38315D01*
X46273Y-38146D01*
X46245Y-38090D01*
X46217Y-38062D01*
X46161Y-38034D01*
X46077Y-38034D01*
X46020Y-38062D01*
X45992Y-38090D01*
X45964Y-38146D01*
X45964Y-38315D01*
X45992Y-38371D01*
X46020Y-38399D01*
X46077Y-38428D01*
X46161Y-38428D01*
X45458Y-38034D02*
X45458Y-38512D01*
X45486Y-38568D01*
X45514Y-38596D01*
X45570Y-38624D01*
X45655Y-38624D01*
X45711Y-38596D01*
X45458Y-38399D02*
X45514Y-38428D01*
X45627Y-38428D01*
X45683Y-38399D01*
X45711Y-38371D01*
X45739Y-38315D01*
X45739Y-38146D01*
X45711Y-38090D01*
X45683Y-38062D01*
X45627Y-38034D01*
X45514Y-38034D01*
X45458Y-38062D01*
X45205Y-38399D02*
X45149Y-38428D01*
X45036Y-38428D01*
X44980Y-38399D01*
X44952Y-38343D01*
X44952Y-38315D01*
X44980Y-38259D01*
X45036Y-38231D01*
X45120Y-38231D01*
X45177Y-38203D01*
X45205Y-38146D01*
X45205Y-38118D01*
X45177Y-38062D01*
X45120Y-38034D01*
X45036Y-38034D01*
X44980Y-38062D01*
X44699Y-38034D02*
X44699Y-38624D01*
X44699Y-38062D02*
X44642Y-38034D01*
X44530Y-38034D01*
X44474Y-38062D01*
X44446Y-38090D01*
X44417Y-38146D01*
X44417Y-38315D01*
X44446Y-38371D01*
X44474Y-38399D01*
X44530Y-38428D01*
X44642Y-38428D01*
X44699Y-38399D01*
X44080Y-38428D02*
X44136Y-38399D01*
X44164Y-38371D01*
X44192Y-38315D01*
X44192Y-38146D01*
X44164Y-38090D01*
X44136Y-38062D01*
X44080Y-38034D01*
X43996Y-38034D01*
X43939Y-38062D01*
X43911Y-38090D01*
X43883Y-38146D01*
X43883Y-38315D01*
X43911Y-38371D01*
X43939Y-38399D01*
X43996Y-38428D01*
X44080Y-38428D01*
X43714Y-38034D02*
X43489Y-38034D01*
X43630Y-37837D02*
X43630Y-38343D01*
X43602Y-38399D01*
X43546Y-38428D01*
X43489Y-38428D01*
X43293Y-38371D02*
X43264Y-38399D01*
X43293Y-38428D01*
X43321Y-38399D01*
X43293Y-38371D01*
X43293Y-38428D01*
X43011Y-38034D02*
X43011Y-38540D01*
X43039Y-38596D01*
X43096Y-38624D01*
X43124Y-38624D01*
X43011Y-37837D02*
X43039Y-37865D01*
X43011Y-37893D01*
X42983Y-37865D01*
X43011Y-37837D01*
X43011Y-37893D01*
X42730Y-38034D02*
X42730Y-38624D01*
X42730Y-38062D02*
X42674Y-38034D01*
X42561Y-38034D01*
X42505Y-38062D01*
X42477Y-38090D01*
X42449Y-38146D01*
X42449Y-38315D01*
X42477Y-38371D01*
X42505Y-38399D01*
X42561Y-38428D01*
X42674Y-38428D01*
X42730Y-38399D01*
X41774Y-37809D02*
X42280Y-38568D01*
G54D12*
X43944Y-22759D02*
X43982Y-22722D01*
X44019Y-22609D01*
X44019Y-22534D01*
X43982Y-22422D01*
X43907Y-22347D01*
X43832Y-22309D01*
X43682Y-22272D01*
X43569Y-22272D01*
X43419Y-22309D01*
X43344Y-22347D01*
X43269Y-22422D01*
X43232Y-22534D01*
X43232Y-22609D01*
X43269Y-22722D01*
X43307Y-22759D01*
X44019Y-23547D02*
X43644Y-23284D01*
X44019Y-23097D02*
X43232Y-23097D01*
X43232Y-23397D01*
X43269Y-23472D01*
X43307Y-23509D01*
X43382Y-23547D01*
X43494Y-23547D01*
X43569Y-23509D01*
X43607Y-23472D01*
X43644Y-23397D01*
X43644Y-23097D01*
X43307Y-23847D02*
X43269Y-23884D01*
X43232Y-23959D01*
X43232Y-24146D01*
X43269Y-24221D01*
X43307Y-24259D01*
X43382Y-24296D01*
X43457Y-24296D01*
X43569Y-24259D01*
X44019Y-23809D01*
X44019Y-24296D01*
X43232Y-24784D02*
X43232Y-24859D01*
X43269Y-24934D01*
X43307Y-24971D01*
X43382Y-25009D01*
X43532Y-25046D01*
X43719Y-25046D01*
X43869Y-25009D01*
X43944Y-24971D01*
X43982Y-24934D01*
X44019Y-24859D01*
X44019Y-24784D01*
X43982Y-24709D01*
X43944Y-24671D01*
X43869Y-24634D01*
X43719Y-24596D01*
X43532Y-24596D01*
X43382Y-24634D01*
X43307Y-24671D01*
X43269Y-24709D01*
X43232Y-24784D01*
X43307Y-25346D02*
X43269Y-25384D01*
X43232Y-25459D01*
X43232Y-25646D01*
X43269Y-25721D01*
X43307Y-25759D01*
X43382Y-25796D01*
X43457Y-25796D01*
X43569Y-25759D01*
X44019Y-25309D01*
X44019Y-25796D01*
X43232Y-26509D02*
X43232Y-26134D01*
X43607Y-26096D01*
X43569Y-26134D01*
X43532Y-26209D01*
X43532Y-26396D01*
X43569Y-26471D01*
X43607Y-26509D01*
X43682Y-26546D01*
X43869Y-26546D01*
X43944Y-26509D01*
X43982Y-26471D01*
X44019Y-26396D01*
X44019Y-26209D01*
X43982Y-26134D01*
X43944Y-26096D01*
G54D13*
X40956Y-29822D02*
G75*
G03X40956Y-29822I-405J0D01*
G74*
G01*
G54D14*
X40566Y-30082D02*
X40566Y-29602D01*
X40311Y-30802D02*
X40791Y-30802D01*
X40551Y-31042D02*
X40551Y-30562D01*
G54D15*
X40956Y-30807D02*
G75*
G03X40956Y-30807I-405J0D01*
G74*
G01*
G54D11*
X45472Y-25196D02*
G75*
G03X45472Y-25196I-196J0D01*
G74*
G01*
X51377Y-27559D02*
G75*
G03X51377Y-27559I-196J0D01*
G74*
G01*
X51401Y-21653D02*
G75*
G03X51401Y-21653I-220J0D01*
G74*
G01*
G54D16*
X50712Y-30409D02*
X51212Y-30409D01*
X50962Y-30159D02*
X50962Y-30659D01*
X48212Y-28659D02*
X48212Y-31159D01*
X48212Y-31159D02*
X50212Y-31159D01*
X50212Y-31159D02*
X50212Y-28659D01*
X47962Y-31159D02*
X47962Y-31409D01*
X47962Y-31409D02*
X50462Y-31409D01*
X50462Y-31409D02*
X50462Y-31159D01*
X47962Y-30659D02*
X47962Y-31159D01*
X50462Y-31159D02*
X50462Y-28659D01*
X47962Y-28659D02*
X47962Y-30659D01*
X52748Y-24409D02*
G75*
G03X52748Y-24409I-3535J0D01*
G74*
G01*
X53513Y-24409D02*
G75*
G03X53513Y-24409I-4301J0D01*
G74*
G01*
G54D17*
X41838Y-29314D02*
X41838Y-31314D01*
X40088Y-29314D02*
X40088Y-31314D01*
X42588Y-31314D02*
X42588Y-29314D01*
X42588Y-31314D02*
X40088Y-31314D01*
X42588Y-29314D02*
X40088Y-29314D01*
G54D13*
X48003Y-22370D02*
X47919Y-22398D01*
X47890Y-22426D01*
X47862Y-22483D01*
X47862Y-22567D01*
X47890Y-22623D01*
X47919Y-22651D01*
X47975Y-22679D01*
X48200Y-22679D01*
X48200Y-22089D01*
X48003Y-22089D01*
X47947Y-22117D01*
X47919Y-22145D01*
X47890Y-22201D01*
X47890Y-22258D01*
X47919Y-22314D01*
X47947Y-22342D01*
X48003Y-22370D01*
X48200Y-22370D01*
X47694Y-22089D02*
X47356Y-22089D01*
X47525Y-22679D02*
X47525Y-22089D01*
X46850Y-22679D02*
X47187Y-22679D01*
X47019Y-22679D02*
X47019Y-22089D01*
X47075Y-22173D01*
X47131Y-22230D01*
X47187Y-22258D01*
X41844Y-32072D02*
X41872Y-32100D01*
X41957Y-32128D01*
X42013Y-32128D01*
X42097Y-32100D01*
X42154Y-32044D01*
X42182Y-31988D01*
X42210Y-31875D01*
X42210Y-31791D01*
X42182Y-31678D01*
X42154Y-31622D01*
X42097Y-31566D01*
X42013Y-31538D01*
X41957Y-31538D01*
X41872Y-31566D01*
X41844Y-31594D01*
X41591Y-32128D02*
X41591Y-31538D01*
X41254Y-32128D01*
X41254Y-31538D01*
X40663Y-32128D02*
X41001Y-32128D01*
X40832Y-32128D02*
X40832Y-31538D01*
X40888Y-31622D01*
X40944Y-31678D01*
X41001Y-31706D01*
M02*
